<svg xmlns="http://www.w3.org/2000/svg" width="1500" height="1500" viewBox="0 0 1500 1500" font-family="monospace">
<rect width="1500" height="1500" fill="#3f7fc4"/>
<polygon points="1295.8,750.0 1293.5,714.4 1287.1,679.3 1277.6,645.1 1265.7,611.8 1252.4,579.5 1238.1,547.8 1223.1,516.7 1207.2,486.1 1189.9,456.1 1170.7,427.2 1149.2,400.0 1124.9,375.1 1098.1,353.1 1069.0,334.2 1038.3,318.5 1006.6,305.5 974.6,294.5 942.7,284.7 911.2,275.2 879.8,265.6 848.3,255.7 816.4,245.9 783.6,236.8 750.0,229.4 715.6,224.6 680.7,223.4 645.8,226.2 611.5,233.1 578.1,243.7 545.9,257.4 514.9,273.3 484.9,290.8 455.5,309.3 426.7,328.6 398.3,348.9 370.6,370.6 344.3,394.2 319.9,420.0 298.5,448.3 280.6,479.0 266.7,511.7 256.8,545.7 250.7,580.5 247.4,615.3 246.1,649.8 245.9,683.6 245.9,717.0 245.8,750.0 245.7,783.1 246.1,816.3 247.8,849.9 251.5,883.6 258.1,917.0 268.0,949.6 281.4,981.1 297.8,1011.1 316.8,1039.4 337.7,1066.4 359.7,1092.3 382.5,1117.5 405.8,1142.5 429.8,1167.3 455.0,1191.6 481.6,1214.9 510.4,1235.8 551.9,1228.3 593.8,1210.2 632.9,1187.1 668.0,1162.4 698.7,1139.7 725.6,1121.8 750.0,1111.4 773.6,1109.8 798.4,1117.4 826.2,1133.3 858.5,1155.0 895.7,1179.1 936.9,1201.3 979.2,1214.7 1009.9,1200.1 1038.9,1182.3 1065.8,1161.6 1090.6,1138.4 1113.1,1113.1 1133.7,1086.5 1152.9,1059.2 1171.5,1031.6 1189.9,1004.0 1208.4,976.1 1226.9,947.5 1245.0,918.0 1261.6,887.1 1276.0,854.6 1286.9,820.7 1293.6,785.6 1295.8,750.0" fill="#5d8a4e" stroke="#8b6b4f" stroke-width="3"/>
<circle cx="750" cy="1200" r="105" fill="#d9c389"/>
<polygon points="687.1,548.4 710.4,577.7 693.5,591.2 670.2,561.8" fill="#b0a89a" opacity="0.85"/>
<polygon points="705.2,584.3 696.6,620.8 675.6,615.9 684.1,579.4" fill="#b0a89a" opacity="0.85"/>
<polygon points="711.7,632.1 677.8,648.1 668.6,628.6 702.5,612.6" fill="#b0a89a" opacity="0.85"/>
<polygon points="701.9,678.3 668.2,661.7 677.8,642.4 711.4,658.9" fill="#b0a89a" opacity="0.85"/>
<polygon points="683.0,710.7 675.1,674.0 696.2,669.5 704.1,706.1" fill="#b0a89a" opacity="0.85"/>
<polygon points="717.1,548.4 740.4,577.7 723.5,591.2 700.2,561.8" fill="#b0a89a" opacity="0.85"/>
<polygon points="735.2,584.3 726.6,620.8 705.6,615.9 714.1,579.4" fill="#b0a89a" opacity="0.85"/>
<polygon points="741.7,632.1 707.8,648.1 698.6,628.6 732.5,612.6" fill="#b0a89a" opacity="0.85"/>
<polygon points="731.9,678.3 698.2,661.7 707.8,642.4 741.4,658.9" fill="#b0a89a" opacity="0.85"/>
<polygon points="713.0,710.7 705.1,674.0 726.2,669.5 734.1,706.1" fill="#b0a89a" opacity="0.85"/>
<polygon points="747.1,548.4 770.4,577.7 753.5,591.2 730.2,561.8" fill="#b0a89a" opacity="0.85"/>
<polygon points="765.2,584.3 756.6,620.8 735.6,615.9 744.1,579.4" fill="#b0a89a" opacity="0.85"/>
<polygon points="771.7,632.1 737.8,648.1 728.6,628.6 762.5,612.6" fill="#b0a89a" opacity="0.85"/>
<polygon points="761.9,678.3 728.2,661.7 737.8,642.4 771.4,658.9" fill="#b0a89a" opacity="0.85"/>
<polygon points="743.0,710.7 735.1,674.0 756.2,669.5 764.1,706.1" fill="#b0a89a" opacity="0.85"/>
<polygon points="777.1,548.4 800.4,577.7 783.5,591.2 760.2,561.8" fill="#b0a89a" opacity="0.85"/>
<polygon points="795.2,584.3 786.6,620.8 765.6,615.9 774.1,579.4" fill="#b0a89a" opacity="0.85"/>
<polygon points="801.7,632.1 767.8,648.1 758.6,628.6 792.5,612.6" fill="#b0a89a" opacity="0.85"/>
<polygon points="791.9,678.3 758.2,661.7 767.8,642.4 801.4,658.9" fill="#b0a89a" opacity="0.85"/>
<polygon points="773.0,710.7 765.1,674.0 786.2,669.5 794.1,706.1" fill="#b0a89a" opacity="0.85"/>
<polygon points="807.1,548.4 830.4,577.7 813.5,591.2 790.2,561.8" fill="#b0a89a" opacity="0.85"/>
<polygon points="825.2,584.3 816.6,620.8 795.6,615.9 804.1,579.4" fill="#b0a89a" opacity="0.85"/>
<polygon points="831.7,632.1 797.8,648.1 788.6,628.6 822.5,612.6" fill="#b0a89a" opacity="0.85"/>
<polygon points="821.9,678.3 788.2,661.7 797.8,642.4 831.4,658.9" fill="#b0a89a" opacity="0.85"/>
<polygon points="803.0,710.7 795.1,674.0 816.2,669.5 824.1,706.1" fill="#b0a89a" opacity="0.85"/>
<polygon points="699.4,727.4 723.2,698.4 740.0,712.1 716.2,741.1" fill="#b0a89a" opacity="0.85"/>
<polygon points="729.4,727.4 753.2,698.4 770.0,712.1 746.2,741.1" fill="#b0a89a" opacity="0.85"/>
<polygon points="759.4,727.4 783.2,698.4 800.0,712.1 776.2,741.1" fill="#b0a89a" opacity="0.85"/>
<polygon points="731.3,738.8 768.8,738.8 768.8,760.4 731.3,760.4" fill="#b0a89a" opacity="0.85"/>
<polygon points="837.1,548.4 860.4,577.7 843.5,591.2 820.2,561.8" fill="#b0a89a" opacity="0.85"/>
<polygon points="867.1,548.4 890.4,577.7 873.5,591.2 850.2,561.8" fill="#b0a89a" opacity="0.85"/>
<polygon points="897.1,548.4 920.4,577.7 903.5,591.2 880.2,561.8" fill="#b0a89a" opacity="0.85"/>
<polygon points="597.1,548.4 620.4,577.7 603.5,591.2 580.2,561.8" fill="#b0a89a" opacity="0.85"/>
<polygon points="627.1,548.4 650.4,577.7 633.5,591.2 610.2,561.8" fill="#b0a89a" opacity="0.85"/>
<polygon points="657.1,548.4 680.4,577.7 663.5,591.2 640.2,561.8" fill="#b0a89a" opacity="0.85"/>
<polygon points="611.3,528.8 648.8,528.8 648.8,550.4 611.3,550.4" fill="#b0a89a" opacity="0.85"/>
<polygon points="549.4,727.4 573.2,698.4 590.0,712.1 566.2,741.1" fill="#b0a89a" opacity="0.85"/>
<polygon points="579.4,727.4 603.2,698.4 620.0,712.1 596.2,741.1" fill="#b0a89a" opacity="0.85"/>
<polygon points="609.4,727.4 633.2,698.4 650.0,712.1 626.2,741.1" fill="#b0a89a" opacity="0.85"/>
<polygon points="639.4,727.4 663.2,698.4 680.0,712.1 656.2,741.1" fill="#b0a89a" opacity="0.85"/>
<polygon points="669.4,727.4 693.2,698.4 710.0,712.1 686.2,741.1" fill="#b0a89a" opacity="0.85"/>
<polygon points="789.6,727.7 812.9,698.4 829.8,711.8 806.5,741.2" fill="#b0a89a" opacity="0.85"/>
<polygon points="819.6,727.7 842.9,698.4 859.8,711.8 836.5,741.2" fill="#b0a89a" opacity="0.85"/>
<polygon points="849.6,727.7 872.9,698.4 889.8,711.8 866.5,741.2" fill="#b0a89a" opacity="0.85"/>
<polygon points="879.6,727.7 902.9,698.4 919.8,711.8 896.5,741.2" fill="#b0a89a" opacity="0.85"/>
<polygon points="909.6,727.7 932.9,698.4 949.8,711.8 926.5,741.2" fill="#b0a89a" opacity="0.85"/>
<polygon points="939.6,727.7 962.9,698.4 979.8,711.8 956.5,741.2" fill="#b0a89a" opacity="0.85"/>
<polygon points="440.6,943.8 550.9,830.3 639.4,916.2 529.1,1029.7" fill="#b0a89a" opacity="0.85"/>
<polygon points="1035.1,989.6 892.1,922.0 944.9,810.4 1087.9,878.0" fill="#b0a89a" opacity="0.85"/>
<rect x="450" y="30" width="600" height="300" fill="none" stroke="#d32f2f" stroke-width="1" opacity="0.6"/>
<rect x="450" y="1170" width="225" height="300" fill="none" stroke="#d32f2f" stroke-width="1" opacity="0.6"/>
<rect x="825" y="1170" width="225" height="300" fill="none" stroke="#d32f2f" stroke-width="1" opacity="0.6"/>
<rect x="675" y="1272" width="150" height="198.00000000000006" fill="none" stroke="#d32f2f" stroke-width="1" opacity="0.6"/>
<rect x="1170" y="450" width="300" height="600" fill="none" stroke="#d32f2f" stroke-width="1" opacity="0.6"/>
<rect x="30" y="450" width="300" height="600" fill="none" stroke="#d32f2f" stroke-width="1" opacity="0.6"/>
<rect x="1020" y="1020" width="450" height="450" fill="none" stroke="#d32f2f" stroke-width="1" opacity="0.6"/>
<rect x="30" y="1020" width="450" height="450" fill="none" stroke="#d32f2f" stroke-width="1" opacity="0.6"/>
<rect x="1020" y="30" width="450" height="450" fill="none" stroke="#d32f2f" stroke-width="1" opacity="0.6"/>
<rect x="30" y="30" width="450" height="450" fill="none" stroke="#d32f2f" stroke-width="1" opacity="0.6"/>
<rect x="1146" y="738" width="24.00000000000002" height="24" fill="none" stroke="#d32f2f" stroke-width="1" opacity="0.6"/>
<rect x="1065" y="1029" width="24.00000000000002" height="24.00000000000002" fill="none" stroke="#d32f2f" stroke-width="1" opacity="0.6"/>
<rect x="278.99999999999994" y="645" width="24.00000000000002" height="23.999999999999993" fill="none" stroke="#d32f2f" stroke-width="1" opacity="0.6"/>
<rect x="408" y="498" width="24.00000000000002" height="24.00000000000002" fill="none" stroke="#d32f2f" stroke-width="1" opacity="0.6"/>
<rect x="645" y="308.99999999999994" width="23.999999999999993" height="24.00000000000002" fill="none" stroke="#d32f2f" stroke-width="1" opacity="0.6"/>
<rect x="969" y="330" width="23.999999999999993" height="24.00000000000002" fill="none" stroke="#d32f2f" stroke-width="1" opacity="0.6"/>
<rect x="630" y="1140" width="23.999999999999993" height="24.00000000000002" fill="none" stroke="#d32f2f" stroke-width="1" opacity="0.6"/>
<rect x="846" y="1146" width="23.999999999999993" height="24.00000000000002" fill="none" stroke="#d32f2f" stroke-width="1" opacity="0.6"/>
<rect x="528" y="678" width="24.00000000000002" height="23.999999999999993" fill="none" stroke="#d32f2f" stroke-width="1" opacity="0.6"/>
<rect x="450" y="765" width="24.00000000000002" height="24" fill="none" stroke="#d32f2f" stroke-width="1" opacity="0.6"/>
<rect x="342" y="792" width="23.999999999999968" height="24.000000000000007" fill="none" stroke="#d32f2f" stroke-width="1" opacity="0.6"/>
<rect x="838.5" y="441" width="92.99999999999999" height="93.00000000000001" fill="none" stroke="#d32f2f" stroke-width="1" opacity="0.6"/>
<rect x="804" y="498" width="39" height="33.000000000000014" fill="none" stroke="#d32f2f" stroke-width="1" opacity="0.6"/>
<rect x="568.5" y="486" width="92.99999999999999" height="48.000000000000014" fill="none" stroke="#d32f2f" stroke-width="1" opacity="0.6"/>
<rect x="546" y="486" width="23.999999999999993" height="48.000000000000014" fill="none" stroke="#d32f2f" stroke-width="1" opacity="0.6"/>
<rect x="660" y="528" width="15" height="15" fill="none" stroke="#d32f2f" stroke-width="1" opacity="0.6"/>
<rect x="468" y="693" width="54.00000000000002" height="53.99999999999999" fill="none" stroke="#d32f2f" stroke-width="1" opacity="0.6"/>
<rect x="522" y="705" width="35.99999999999998" height="90" fill="none" stroke="#d32f2f" stroke-width="1" opacity="0.6"/>
<rect x="423" y="714" width="36.00000000000003" height="42" fill="none" stroke="#d32f2f" stroke-width="1" opacity="0.6"/>
<rect x="435" y="669" width="35.99999999999998" height="36.00000000000001" fill="none" stroke="#d32f2f" stroke-width="1" opacity="0.6"/>
<rect x="958.5" y="696" width="93.00000000000001" height="48" fill="none" stroke="#d32f2f" stroke-width="1" opacity="0.6"/>
<rect x="946.5" y="738" width="12.00000000000001" height="12" fill="none" stroke="#d32f2f" stroke-width="1" opacity="0.6"/>
<rect x="1057.5" y="723" width="24.00000000000002" height="30" fill="none" stroke="#d32f2f" stroke-width="1" opacity="0.6"/>
<rect x="714" y="579" width="72" height="72.00000000000001" fill="none" stroke="#d32f2f" stroke-width="1" opacity="0.6"/>
<rect x="600" y="660" width="60" height="60" fill="none" stroke="#d32f2f" stroke-width="1" opacity="0.6"/>
<rect x="1008" y="807" width="54.00000000000002" height="54.00000000000001" fill="none" stroke="#d32f2f" stroke-width="1" opacity="0.6"/>
<rect x="669" y="801" width="30.000000000000007" height="30.000000000000007" fill="none" stroke="#d32f2f" stroke-width="1" opacity="0.6"/>
<rect x="861" y="831" width="30" height="30" fill="none" stroke="#d32f2f" stroke-width="1" opacity="0.6"/>
<rect x="885" y="585" width="30" height="30" fill="none" stroke="#d32f2f" stroke-width="1" opacity="0.6"/>
<rect x="585" y="585" width="30" height="30" fill="none" stroke="#d32f2f" stroke-width="1" opacity="0.6"/>
<rect x="552" y="822" width="35.99999999999998" height="36.00000000000001" fill="none" stroke="#d32f2f" stroke-width="1" opacity="0.6"/>
<rect x="915" y="825" width="30" height="30" fill="none" stroke="#d32f2f" stroke-width="1" opacity="0.6"/>
<rect x="975" y="1098" width="54.00000000000002" height="54.00000000000002" fill="none" stroke="#d32f2f" stroke-width="1" opacity="0.6"/>
<rect x="549" y="1137" width="53.99999999999999" height="53.99999999999997" fill="none" stroke="#d32f2f" stroke-width="1" opacity="0.6"/>
<rect x="675" y="420" width="30" height="30" fill="none" stroke="#d32f2f" stroke-width="1" opacity="0.6"/>
<rect x="507" y="582" width="35.99999999999998" height="35.99999999999998" fill="none" stroke="#d32f2f" stroke-width="1" opacity="0.6"/>
<rect x="957" y="582" width="35.99999999999998" height="35.99999999999998" fill="none" stroke="#d32f2f" stroke-width="1" opacity="0.6"/>
<rect x="399" y="849" width="41.99999999999996" height="42.000000000000014" fill="none" stroke="#d32f2f" stroke-width="1" opacity="0.6"/>
<rect x="732" y="798" width="36" height="35.99999999999999" fill="none" stroke="#d32f2f" stroke-width="1" opacity="0.6"/>
<rect x="1033.5" y="486" width="93.00000000000004" height="48.000000000000014" fill="none" stroke="#d32f2f" stroke-width="1" opacity="0.6"/>
<rect x="358.5" y="921" width="93.00000000000004" height="47.999999999999986" fill="none" stroke="#d32f2f" stroke-width="1" opacity="0.6"/>
<rect x="1048.5" y="921" width="93.00000000000004" height="47.999999999999986" fill="none" stroke="#d32f2f" stroke-width="1" opacity="0.6"/>
<rect x="819" y="783" width="42.000000000000014" height="42" fill="none" stroke="#d32f2f" stroke-width="1" opacity="0.6"/>
<rect x="675" y="492" width="150" height="20.99999999999998" fill="none" stroke="#d32f2f" stroke-width="1" opacity="0.6"/>
<rect x="465" y="540" width="30" height="30" fill="none" stroke="#d32f2f" stroke-width="1" opacity="0.6"/>
<rect x="1005" y="540" width="30" height="30" fill="none" stroke="#d32f2f" stroke-width="1" opacity="0.6"/>
<rect x="774" y="675" width="72.00000000000001" height="60" fill="#ffd75e" opacity="0.3" stroke="#c8a200" stroke-width="1.5"/>
<text x="810" y="746" font-size="11" fill="#7a6200" text-anchor="middle">npc_guide</text>
<rect x="867" y="534" width="78" height="42.000000000000014" fill="#ffd75e" opacity="0.3" stroke="#c8a200" stroke-width="1.5"/>
<text x="906" y="587" font-size="11" fill="#7a6200" text-anchor="middle">door_about</text>
<rect x="477" y="747" width="77.99999999999999" height="42.00000000000001" fill="#ffd75e" opacity="0.3" stroke="#c8a200" stroke-width="1.5"/>
<text x="516" y="800" font-size="11" fill="#7a6200" text-anchor="middle">door_projects</text>
<rect x="597" y="534" width="77.99999999999999" height="42.000000000000014" fill="#ffd75e" opacity="0.3" stroke="#c8a200" stroke-width="1.5"/>
<text x="636" y="587" font-size="11" fill="#7a6200" text-anchor="middle">door_blog</text>
<rect x="585" y="645" width="90" height="90" fill="#ffd75e" opacity="0.3" stroke="#c8a200" stroke-width="1.5"/>
<text x="630" y="746" font-size="11" fill="#7a6200" text-anchor="middle">board_quest</text>
<rect x="972" y="747" width="57.000000000000014" height="42.00000000000001" fill="#ffd75e" opacity="0.3" stroke="#c8a200" stroke-width="1.5"/>
<text x="1000.5" y="800" font-size="11" fill="#7a6200" text-anchor="middle">mailbox_contact</text>
<rect x="645" y="780" width="90" height="75" fill="#ffd75e" opacity="0.3" stroke="#c8a200" stroke-width="1.5"/>
<text x="690" y="866" font-size="11" fill="#7a6200" text-anchor="middle">sign_controls</text>
<rect x="825" y="810" width="90" height="75" fill="#ffd75e" opacity="0.3" stroke="#c8a200" stroke-width="1.5"/>
<text x="870" y="896" font-size="11" fill="#7a6200" text-anchor="middle">sign_skip</text>
<rect x="1002" y="801" width="65.99999999999997" height="66" fill="#ffd75e" opacity="0.3" stroke="#c8a200" stroke-width="1.5"/>
<text x="1035" y="878" font-size="11" fill="#7a6200" text-anchor="middle">well_easteregg</text>
<rect x="645" y="645" width="90" height="90" fill="#ffd75e" opacity="0.3" stroke="#c8a200" stroke-width="1.5"/>
<text x="690" y="746" font-size="11" fill="#7a6200" text-anchor="middle">cat_npc</text>
<polygon points="1116.9,708.9 1199.1,708.9 1199.1,791.1 1116.9,791.1" fill="#2e7d32" opacity="0.75" stroke="#333" stroke-width="0.5"/>
<polygon points="1094.0,1128.6 1024.0,1064.4 1095.6,986.1 1165.7,1050.3" fill="#2e7d32" opacity="0.75" stroke="#333" stroke-width="0.5"/>
<polygon points="258.7,573.8 339.1,624.6 282.4,714.3 202.0,663.6" fill="#2e7d32" opacity="0.75" stroke="#333" stroke-width="0.5"/>
<polygon points="383.0,575.3 354.7,473.0 457.0,444.7 485.3,547.0" fill="#2e7d32" opacity="0.75" stroke="#333" stroke-width="0.5"/>
<polygon points="736.9,281.3 693.6,365.9 599.1,317.6 642.4,233.0" fill="#2e7d32" opacity="0.75" stroke="#333" stroke-width="0.5"/>
<polygon points="928.1,318.0 1005.0,289.1 1033.9,366.0 957.0,394.9" fill="#2e7d32" opacity="0.75" stroke="#333" stroke-width="0.5"/>
<polygon points="840.0,447.0 840.0,442.5 885.0,442.5 885.0,447.0" fill="#b5651d" opacity="0.55" stroke="#333" stroke-width="0.5"/>
<polygon points="847.9,487.5 840.0,487.5 840.0,442.5 847.9,442.5" fill="#b5651d" opacity="0.55" stroke="#333" stroke-width="0.5"/>
<polygon points="885.0,450.4 885.0,442.5 930.0,442.5 930.0,450.4" fill="#b5651d" opacity="0.55" stroke="#333" stroke-width="0.5"/>
<polygon points="925.5,442.5 930.0,442.5 930.0,487.5 925.5,487.5" fill="#b5651d" opacity="0.55" stroke="#333" stroke-width="0.5"/>
<polygon points="925.5,487.5 930.0,487.5 930.0,532.5 925.5,532.5" fill="#b5651d" opacity="0.55" stroke="#333" stroke-width="0.5"/>
<polygon points="930.0,508.9 930.0,532.5 885.0,532.5 885.0,508.9" fill="#b5651d" opacity="0.55" stroke="#333" stroke-width="0.5"/>
<polygon points="885.0,524.6 885.0,532.5 840.0,532.5 840.0,524.6" fill="#b5651d" opacity="0.55" stroke="#333" stroke-width="0.5"/>
<polygon points="844.5,532.5 840.0,532.5 840.0,487.5 844.5,487.5" fill="#b5651d" opacity="0.55" stroke="#333" stroke-width="0.5"/>
<polygon points="885.0,439.5 885.0,487.5 837.0,487.5 837.0,439.5" fill="#b5651d" opacity="0.55" stroke="#333" stroke-width="0.5"/>
<polygon points="933.0,487.5 885.0,487.5 885.0,439.5 933.0,439.5" fill="#b5651d" opacity="0.55" stroke="#333" stroke-width="0.5"/>
<polygon points="885.0,535.5 885.0,487.5 933.0,487.5 933.0,535.5" fill="#b5651d" opacity="0.55" stroke="#333" stroke-width="0.5"/>
<polygon points="837.0,487.5 885.0,487.5 885.0,535.5 837.0,535.5" fill="#b5651d" opacity="0.55" stroke="#333" stroke-width="0.5"/>
<polygon points="874.0,466.9 881.0,466.9 881.0,478.1 874.0,478.1" fill="#b5651d" opacity="0.55" stroke="#333" stroke-width="0.5"/>
<polygon points="807.0,492.0 837.0,492.0 837.0,494.1 807.0,494.1" fill="#e07b00" opacity="0.75" stroke="#333" stroke-width="0.5"/>
<text x="822" y="507" font-size="7" fill="#111" text-anchor="middle">fence_simple</text>
<polygon points="806.4,515.2 819.6,515.2 819.6,528.8 806.4,528.8" fill="#81c784" opacity="0.75" stroke="#333" stroke-width="0.5"/>
<polygon points="825.9,519.9 836.1,519.9 836.1,530.1 825.9,530.1" fill="#81c784" opacity="0.75" stroke="#333" stroke-width="0.5"/>
<polygon points="574.5,532.5 570.0,532.5 570.0,487.5 574.5,487.5" fill="#b5651d" opacity="0.55" stroke="#333" stroke-width="0.5"/>
<polygon points="570.0,492.0 570.0,487.5 615.0,487.5 615.0,492.0" fill="#b5651d" opacity="0.55" stroke="#333" stroke-width="0.5"/>
<polygon points="615.0,528.0 615.0,532.5 570.0,532.5 570.0,528.0" fill="#b5651d" opacity="0.55" stroke="#333" stroke-width="0.5"/>
<polygon points="655.5,487.5 660.0,487.5 660.0,532.5 655.5,532.5" fill="#b5651d" opacity="0.55" stroke="#333" stroke-width="0.5"/>
<polygon points="615.0,492.0 615.0,487.5 660.0,487.5 660.0,492.0" fill="#b5651d" opacity="0.55" stroke="#333" stroke-width="0.5"/>
<polygon points="660.0,508.9 660.0,532.5 615.0,532.5 615.0,508.9" fill="#b5651d" opacity="0.55" stroke="#333" stroke-width="0.5"/>
<polygon points="574.5,532.5 570.0,532.5 570.0,487.5 574.5,487.5" fill="#b5651d" opacity="0.55" stroke="#333" stroke-width="0.5"/>
<polygon points="570.0,492.0 570.0,487.5 615.0,487.5 615.0,492.0" fill="#b5651d" opacity="0.55" stroke="#333" stroke-width="0.5"/>
<polygon points="615.0,528.0 615.0,532.5 570.0,532.5 570.0,528.0" fill="#b5651d" opacity="0.55" stroke="#333" stroke-width="0.5"/>
<polygon points="655.5,487.5 660.0,487.5 660.0,532.5 655.5,532.5" fill="#b5651d" opacity="0.55" stroke="#333" stroke-width="0.5"/>
<polygon points="615.0,492.0 615.0,487.5 660.0,487.5 660.0,492.0" fill="#b5651d" opacity="0.55" stroke="#333" stroke-width="0.5"/>
<polygon points="660.0,528.0 660.0,532.5 615.0,532.5 615.0,528.0" fill="#b5651d" opacity="0.55" stroke="#333" stroke-width="0.5"/>
<polygon points="568.4,485.9 617.3,485.9 617.3,534.1 568.4,534.1" fill="#b5651d" opacity="0.55" stroke="#333" stroke-width="0.5"/>
<polygon points="661.6,534.1 612.7,534.1 612.7,485.9 661.6,485.9" fill="#b5651d" opacity="0.55" stroke="#333" stroke-width="0.5"/>
<polygon points="606.0,524.4 607.8,524.4 607.8,542.4 606.0,542.4" fill="#b5651d" opacity="0.55" stroke="#333" stroke-width="0.5"/>
<polygon points="669.2,537.2 665.8,537.2 665.8,524.3 669.2,524.3" fill="#b5651d" opacity="0.55" stroke="#333" stroke-width="0.5"/>
<polygon points="554.2,483.0 579.8,483.0 579.8,537.0 554.2,537.0" fill="#e07b00" opacity="0.75" stroke="#333" stroke-width="0.5"/>
<text x="567" y="510" font-size="7" fill="#111" text-anchor="middle">watermill</text>
<polygon points="519.0,744.0 471.0,744.0 471.0,696.0 519.0,696.0" fill="#e07b00" opacity="0.75" stroke="#333" stroke-width="0.5"/>
<text x="495" y="720" font-size="7" fill="#111" text-anchor="middle">stall-red</text>
<polygon points="520.5,738.7 520.5,713.3 559.5,713.3 559.5,738.7" fill="#e07b00" opacity="0.75" stroke="#333" stroke-width="0.5"/>
<text x="540" y="726" font-size="7" fill="#111" text-anchor="middle">stall</text>
<polygon points="544.7,766.9 535.3,766.9 535.3,733.1 544.7,733.1" fill="#e07b00" opacity="0.75" stroke="#333" stroke-width="0.5"/>
<text x="540" y="750" font-size="7" fill="#111" text-anchor="middle">stall-bench</text>
<polygon points="423.2,719.7 440.3,710.3 459.6,745.6 442.4,755.0" fill="#e07b00" opacity="0.75" stroke="#333" stroke-width="0.5"/>
<text x="441" y="732" font-size="7" fill="#111" text-anchor="middle">cart</text>
<polygon points="448.5,675.2 461.0,677.8 456.8,698.6 444.3,696.1" fill="#e07b00" opacity="0.75" stroke="#333" stroke-width="0.5"/>
<text x="453" y="687" font-size="7" fill="#111" text-anchor="middle">log_stack</text>
<polygon points="519.1,687.1 524.9,687.1 524.9,692.9 519.1,692.9" fill="#b5651d" opacity="0.55" stroke="#333" stroke-width="0.5"/>
<polygon points="960.0,702.0 960.0,697.5 1005.0,697.5 1005.0,702.0" fill="#b5651d" opacity="0.55" stroke="#333" stroke-width="0.5"/>
<polygon points="964.5,742.5 960.0,742.5 960.0,697.5 964.5,697.5" fill="#b5651d" opacity="0.55" stroke="#333" stroke-width="0.5"/>
<polygon points="1005.0,738.0 1005.0,742.5 960.0,742.5 960.0,738.0" fill="#b5651d" opacity="0.55" stroke="#333" stroke-width="0.5"/>
<polygon points="1005.0,702.0 1005.0,697.5 1050.0,697.5 1050.0,702.0" fill="#b5651d" opacity="0.55" stroke="#333" stroke-width="0.5"/>
<polygon points="1045.5,697.5 1050.0,697.5 1050.0,742.5 1045.5,742.5" fill="#b5651d" opacity="0.55" stroke="#333" stroke-width="0.5"/>
<polygon points="1050.0,718.9 1050.0,742.5 1005.0,742.5 1005.0,718.9" fill="#b5651d" opacity="0.55" stroke="#333" stroke-width="0.5"/>
<polygon points="958.4,695.9 1007.3,695.9 1007.3,744.1 958.4,744.1" fill="#b5651d" opacity="0.55" stroke="#333" stroke-width="0.5"/>
<polygon points="1051.6,744.1 1002.7,744.1 1002.7,695.9 1051.6,695.9" fill="#b5651d" opacity="0.55" stroke="#333" stroke-width="0.5"/>
<polygon points="1050.0,726.3 1050.0,739.1 1005.0,739.1 1005.0,726.3" fill="#b5651d" opacity="0.55" stroke="#333" stroke-width="0.5"/>
<polygon points="996.0,732.0 997.8,732.0 997.8,750.0 996.0,750.0" fill="#b5651d" opacity="0.55" stroke="#333" stroke-width="0.5"/>
<polygon points="950.8,742.3 954.2,742.3 954.2,755.2 950.8,755.2" fill="#b5651d" opacity="0.55" stroke="#333" stroke-width="0.5"/>
<polygon points="1064.7,729.7 1076.6,736.2 1075.0,738.9 1063.2,732.5" fill="#e07b00" opacity="0.75" stroke="#333" stroke-width="0.5"/>
<text x="1069.5" y="735" font-size="7" fill="#111" text-anchor="middle">sign</text>
<polygon points="714.0,579.0 786.0,579.0 786.0,651.0 714.0,651.0" fill="#e07b00" opacity="0.75" stroke="#333" stroke-width="0.5"/>
<text x="750" y="615" font-size="7" fill="#111" text-anchor="middle">fountain-round</text>
<polygon points="732.0,597.0 768.0,597.0 768.0,633.0 732.0,633.0" fill="#e07b00" opacity="0.75" stroke="#333" stroke-width="0.5"/>
<text x="750" y="615" font-size="7" fill="#111" text-anchor="middle">fountain-center</text>
<polygon points="620.5,689.7 637.7,684.3 638.9,688.3 621.7,693.7" fill="#e07b00" opacity="0.75" stroke="#333" stroke-width="0.5"/>
<text x="630" y="690" font-size="7" fill="#111" text-anchor="middle">sign</text>
<polygon points="663.8,668.3 665.9,667.6 672.6,689.1 670.4,689.8" fill="#b5651d" opacity="0.55" stroke="#333" stroke-width="0.5"/>
<polygon points="615.3,668.3 617.9,667.5 628.5,701.9 625.9,702.7" fill="#e07b00" opacity="0.75" stroke="#333" stroke-width="0.5"/>
<text x="606" y="690" font-size="7" fill="#111" text-anchor="middle">fence</text>
<polygon points="1002.0,801.0 1068.0,801.0 1068.0,867.0 1002.0,867.0" fill="#e07b00" opacity="0.75" stroke="#333" stroke-width="0.5"/>
<text x="1035" y="834" font-size="7" fill="#111" text-anchor="middle">fountain-round-detail</text>
<polygon points="676.9,817.2 688.8,810.7 690.3,813.5 678.5,819.9" fill="#e07b00" opacity="0.75" stroke="#333" stroke-width="0.5"/>
<text x="684" y="816" font-size="7" fill="#111" text-anchor="middle">sign</text>
<polygon points="871.2,840.7 883.1,847.2 881.5,849.9 869.7,843.5" fill="#e07b00" opacity="0.75" stroke="#333" stroke-width="0.5"/>
<text x="876" y="846" font-size="7" fill="#111" text-anchor="middle">sign</text>
<polygon points="806.8,596.6 813.2,596.6 813.2,603.4 806.8,603.4" fill="#e07b00" opacity="0.75" stroke="#333" stroke-width="0.5"/>
<text x="810" y="600" font-size="7" fill="#111" text-anchor="middle">lantern</text>
<polygon points="686.8,596.6 693.2,596.6 693.2,603.4 686.8,603.4" fill="#e07b00" opacity="0.75" stroke="#333" stroke-width="0.5"/>
<text x="690" y="600" font-size="7" fill="#111" text-anchor="middle">lantern</text>
<polygon points="847.2,600.8 899.2,547.2 952.8,599.2 900.8,652.8" fill="#2e7d32" opacity="0.75" stroke="#333" stroke-width="0.5"/>
<polygon points="591.3,680.6 547.7,606.1 630.9,557.3 674.6,631.9" fill="#2e7d32" opacity="0.75" stroke="#333" stroke-width="0.5"/>
<polygon points="641.4,834.8 575.2,911.4 498.6,845.2 564.8,768.6" fill="#2e7d32" opacity="0.75" stroke="#333" stroke-width="0.5"/>
<polygon points="934.2,754.9 984.5,830.4 900.2,886.6 849.9,811.1" fill="#2e7d32" opacity="0.75" stroke="#333" stroke-width="0.5"/>
<polygon points="733.1,928.1 766.9,928.1 766.9,961.9 733.1,961.9" fill="#2e7d32" opacity="0.75" stroke="#333" stroke-width="0.5"/>
<polygon points="337.5,330.8 375.4,304.9 412.5,359.2 374.6,385.1" fill="#e07b00" opacity="0.75" stroke="#333" stroke-width="0.5"/>
<text x="375" y="345" font-size="7" fill="#111" text-anchor="middle">rock-wide</text>
<polygon points="416.0,307.7 452.0,307.7 452.0,355.5 416.0,355.5" fill="#e07b00" opacity="0.75" stroke="#333" stroke-width="0.5"/>
<text x="435" y="336" font-size="7" fill="#111" text-anchor="middle">rock-small</text>
<polygon points="929.2,1064.2 1067.3,1064.2 1067.3,1182.6 929.2,1182.6" fill="#e07b00" opacity="0.75" stroke="#333" stroke-width="0.5"/>
<text x="1002" y="1125" font-size="7" fill="#111" text-anchor="middle">rocks-sand-a</text>
<polygon points="512.8,1097.4 631.0,1097.4 631.0,1224.6 512.8,1224.6" fill="#e07b00" opacity="0.75" stroke="#333" stroke-width="0.5"/>
<text x="576" y="1164" font-size="7" fill="#111" text-anchor="middle">rocks-sand-b</text>
<polygon points="646.1,473.1 651.9,391.1 733.9,396.9 728.1,478.9" fill="#2e7d32" opacity="0.75" stroke="#333" stroke-width="0.5"/>
<polygon points="508.6,576.5 541.4,576.5 541.4,623.5 508.6,623.5" fill="#e07b00" opacity="0.75" stroke="#333" stroke-width="0.5"/>
<text x="525" y="600" font-size="7" fill="#111" text-anchor="middle">rock-wide</text>
<polygon points="959.2,576.5 989.1,576.5 989.1,616.2 959.2,616.2" fill="#e07b00" opacity="0.75" stroke="#333" stroke-width="0.5"/>
<text x="975" y="600" font-size="7" fill="#111" text-anchor="middle">rock-small</text>
<polygon points="388.6,843.9 448.8,843.9 448.8,899.7 388.6,899.7" fill="#e07b00" opacity="0.75" stroke="#333" stroke-width="0.5"/>
<text x="420" y="870" font-size="7" fill="#111" text-anchor="middle">rock-large</text>
<polygon points="806.9,633.3 811.6,633.3 811.6,638.7 806.9,638.7" fill="#81c784" opacity="0.75" stroke="#333" stroke-width="0.5"/>
<polygon points="686.1,632.4 692.4,632.4 692.4,639.6 686.1,639.6" fill="#81c784" opacity="0.75" stroke="#333" stroke-width="0.5"/>
<polygon points="791.9,867.3 796.6,867.3 796.6,872.7 791.9,872.7" fill="#81c784" opacity="0.75" stroke="#333" stroke-width="0.5"/>
<polygon points="701.9,867.3 706.6,867.3 706.6,872.7 701.9,872.7" fill="#81c784" opacity="0.75" stroke="#333" stroke-width="0.5"/>
<polygon points="595.5,632.3 604.4,632.3 604.4,640.7 595.5,640.7" fill="#81c784" opacity="0.75" stroke="#333" stroke-width="0.5"/>
<polygon points="896.9,632.5 903.2,632.5 903.2,639.8 896.9,639.8" fill="#81c784" opacity="0.75" stroke="#333" stroke-width="0.5"/>
<polygon points="652.8,598.4 667.6,598.4 667.6,613.0 652.8,613.0" fill="#81c784" opacity="0.75" stroke="#333" stroke-width="0.5"/>
<polygon points="832.8,597.4 846.6,597.4 846.6,611.5 832.8,611.5" fill="#81c784" opacity="0.75" stroke="#333" stroke-width="0.5"/>
<polygon points="744.7,810.7 755.3,810.7 755.3,821.3 744.7,821.3" fill="#e07b00" opacity="0.75" stroke="#333" stroke-width="0.5"/>
<text x="750" y="816" font-size="7" fill="#111" text-anchor="middle">campfire_logs</text>
<polygon points="505.2,984.4 514.8,984.4 514.8,995.6 505.2,995.6" fill="#e07b00" opacity="0.75" stroke="#333" stroke-width="0.5"/>
<text x="510" y="990" font-size="7" fill="#111" text-anchor="middle">stump_round</text>
<polygon points="985.2,984.4 995.9,984.4 995.9,995.6 985.2,995.6" fill="#e07b00" opacity="0.75" stroke="#333" stroke-width="0.5"/>
<text x="990" y="990" font-size="7" fill="#111" text-anchor="middle">stump_old</text>
<polygon points="1035.0,492.0 1035.0,487.5 1080.0,487.5 1080.0,492.0" fill="#b5651d" opacity="0.55" stroke="#333" stroke-width="0.5"/>
<polygon points="1039.5,532.5 1035.0,532.5 1035.0,487.5 1039.5,487.5" fill="#b5651d" opacity="0.55" stroke="#333" stroke-width="0.5"/>
<polygon points="1080.0,528.0 1080.0,532.5 1035.0,532.5 1035.0,528.0" fill="#b5651d" opacity="0.55" stroke="#333" stroke-width="0.5"/>
<polygon points="1080.0,492.0 1080.0,487.5 1125.0,487.5 1125.0,492.0" fill="#b5651d" opacity="0.55" stroke="#333" stroke-width="0.5"/>
<polygon points="1120.5,487.5 1125.0,487.5 1125.0,532.5 1120.5,532.5" fill="#b5651d" opacity="0.55" stroke="#333" stroke-width="0.5"/>
<polygon points="1125.0,508.9 1125.0,532.5 1080.0,532.5 1080.0,508.9" fill="#b5651d" opacity="0.55" stroke="#333" stroke-width="0.5"/>
<polygon points="1033.4,485.9 1082.3,485.9 1082.3,534.1 1033.4,534.1" fill="#b5651d" opacity="0.55" stroke="#333" stroke-width="0.5"/>
<polygon points="1126.6,534.1 1077.7,534.1 1077.7,485.9 1126.6,485.9" fill="#b5651d" opacity="0.55" stroke="#333" stroke-width="0.5"/>
<polygon points="1040.6,531.0 1046.0,526.4 1059.7,542.7 1054.4,547.3" fill="#e07b00" opacity="0.75" stroke="#333" stroke-width="0.5"/>
<text x="1050" y="537" font-size="7" fill="#111" text-anchor="middle">log</text>
<polygon points="1103.9,537.3 1108.6,537.3 1108.6,542.7 1103.9,542.7" fill="#81c784" opacity="0.75" stroke="#333" stroke-width="0.5"/>
<polygon points="405.0,963.0 405.0,967.5 360.0,967.5 360.0,963.0" fill="#b5651d" opacity="0.55" stroke="#333" stroke-width="0.5"/>
<polygon points="364.5,967.5 360.0,967.5 360.0,922.5 364.5,922.5" fill="#b5651d" opacity="0.55" stroke="#333" stroke-width="0.5"/>
<polygon points="360.0,927.0 360.0,922.5 405.0,922.5 405.0,927.0" fill="#b5651d" opacity="0.55" stroke="#333" stroke-width="0.5"/>
<polygon points="450.0,963.0 450.0,967.5 405.0,967.5 405.0,963.0" fill="#b5651d" opacity="0.55" stroke="#333" stroke-width="0.5"/>
<polygon points="445.5,922.5 450.0,922.5 450.0,967.5 445.5,967.5" fill="#b5651d" opacity="0.55" stroke="#333" stroke-width="0.5"/>
<polygon points="405.0,946.1 405.0,922.5 450.0,922.5 450.0,946.1" fill="#b5651d" opacity="0.55" stroke="#333" stroke-width="0.5"/>
<polygon points="358.4,920.9 407.3,920.9 407.3,969.1 358.4,969.1" fill="#b5651d" opacity="0.55" stroke="#333" stroke-width="0.5"/>
<polygon points="451.6,969.1 402.7,969.1 402.7,920.9 451.6,920.9" fill="#b5651d" opacity="0.55" stroke="#333" stroke-width="0.5"/>
<polygon points="431.4,983.2 444.6,983.2 444.6,996.8 431.4,996.8" fill="#81c784" opacity="0.75" stroke="#333" stroke-width="0.5"/>
<polygon points="429.0,993.0 459.0,993.0 459.0,995.1 429.0,995.1" fill="#e07b00" opacity="0.75" stroke="#333" stroke-width="0.5"/>
<text x="444" y="1008" font-size="7" fill="#111" text-anchor="middle">fence_simple</text>
<polygon points="1095.0,963.0 1095.0,967.5 1050.0,967.5 1050.0,963.0" fill="#b5651d" opacity="0.55" stroke="#333" stroke-width="0.5"/>
<polygon points="1054.5,967.5 1050.0,967.5 1050.0,922.5 1054.5,922.5" fill="#b5651d" opacity="0.55" stroke="#333" stroke-width="0.5"/>
<polygon points="1050.0,927.0 1050.0,922.5 1095.0,922.5 1095.0,927.0" fill="#b5651d" opacity="0.55" stroke="#333" stroke-width="0.5"/>
<polygon points="1140.0,963.0 1140.0,967.5 1095.0,967.5 1095.0,963.0" fill="#b5651d" opacity="0.55" stroke="#333" stroke-width="0.5"/>
<polygon points="1135.5,922.5 1140.0,922.5 1140.0,967.5 1135.5,967.5" fill="#b5651d" opacity="0.55" stroke="#333" stroke-width="0.5"/>
<polygon points="1095.0,946.1 1095.0,922.5 1140.0,922.5 1140.0,946.1" fill="#b5651d" opacity="0.55" stroke="#333" stroke-width="0.5"/>
<polygon points="1048.4,920.9 1097.3,920.9 1097.3,969.1 1048.4,969.1" fill="#b5651d" opacity="0.55" stroke="#333" stroke-width="0.5"/>
<polygon points="1141.6,969.1 1092.7,969.1 1092.7,920.9 1141.6,920.9" fill="#b5651d" opacity="0.55" stroke="#333" stroke-width="0.5"/>
<polygon points="1050.5,985.7 1067.5,985.7 1067.5,1000.3 1050.5,1000.3" fill="#e07b00" opacity="0.75" stroke="#333" stroke-width="0.5"/>
<text x="1059" y="993" font-size="7" fill="#111" text-anchor="middle">pot_large</text>
<polygon points="1116.0,968.6 1128.3,968.6 1128.3,980.9 1116.0,980.9" fill="#81c784" opacity="0.75" stroke="#333" stroke-width="0.5"/>
<polygon points="849.0,742.8 860.5,742.8 860.5,754.6 849.0,754.6" fill="#81c784" opacity="0.75" stroke="#333" stroke-width="0.5"/>
<polygon points="636.5,840.7 634.9,828.6 647.0,827.0 648.6,839.2" fill="#81c784" opacity="0.75" stroke="#333" stroke-width="0.5"/>
<polygon points="886.8,907.0 884.8,902.6 889.8,900.4 891.8,904.7" fill="#81c784" opacity="0.75" stroke="#333" stroke-width="0.5"/>
<polygon points="477.0,708.4 486.5,702.0 493.1,711.7 483.7,718.2" fill="#81c784" opacity="0.75" stroke="#333" stroke-width="0.5"/>
<polygon points="1007.2,617.7 999.1,608.5 1008.2,600.4 1016.4,609.5" fill="#81c784" opacity="0.75" stroke="#333" stroke-width="0.5"/>
<polygon points="655.9,1035.8 658.9,1032.0 663.1,1035.4 660.2,1039.1" fill="#81c784" opacity="0.75" stroke="#333" stroke-width="0.5"/>
<polygon points="879.1,795.0 883.3,784.3 894.3,788.6 890.1,799.2" fill="#81c784" opacity="0.75" stroke="#333" stroke-width="0.5"/>
<polygon points="583.3,817.6 571.4,814.7 574.3,802.8 586.2,805.7" fill="#81c784" opacity="0.75" stroke="#333" stroke-width="0.5"/>
<polygon points="843.1,578.9 843.4,574.2 848.8,574.6 848.5,579.3" fill="#81c784" opacity="0.75" stroke="#333" stroke-width="0.5"/>
<polygon points="827.6,963.6 832.4,963.1 832.9,968.5 828.2,969.0" fill="#81c784" opacity="0.75" stroke="#333" stroke-width="0.5"/>
<polygon points="477.4,625.4 474.8,614.3 486.2,611.6 488.8,622.8" fill="#81c784" opacity="0.75" stroke="#333" stroke-width="0.5"/>
<polygon points="1081.0,683.5 1092.3,678.7 1097.1,690.0 1085.8,694.7" fill="#81c784" opacity="0.75" stroke="#333" stroke-width="0.5"/>
<polygon points="689.2,826.1 686.8,822.0 691.5,819.2 693.9,823.3" fill="#81c784" opacity="0.75" stroke="#333" stroke-width="0.5"/>
<polygon points="890.5,861.3 882.1,853.6 890.1,844.9 898.5,852.6" fill="#81c784" opacity="0.75" stroke="#333" stroke-width="0.5"/>
<polygon points="516.4,760.6 523.0,750.3 533.3,756.9 526.7,767.2" fill="#81c784" opacity="0.75" stroke="#333" stroke-width="0.5"/>
<polygon points="940.7,594.8 936.4,592.8 938.7,587.8 943.0,589.9" fill="#81c784" opacity="0.75" stroke="#333" stroke-width="0.5"/>
<polygon points="731.5,1013.3 732.8,1008.7 738.1,1010.1 736.8,1014.7" fill="#81c784" opacity="0.75" stroke="#333" stroke-width="0.5"/>
<polygon points="532.9,530.0 521.6,528.3 523.2,516.7 534.6,518.3" fill="#81c784" opacity="0.75" stroke="#333" stroke-width="0.5"/>
<polygon points="848.8,768.2 848.5,755.9 860.7,755.5 861.0,767.8" fill="#81c784" opacity="0.75" stroke="#333" stroke-width="0.5"/>
<polygon points="626.4,820.0 631.1,819.0 632.1,824.3 627.5,825.3" fill="#81c784" opacity="0.75" stroke="#333" stroke-width="0.5"/>
<polygon points="855.3,914.6 865.4,909.1 871.0,919.4 861.0,924.9" fill="#81c784" opacity="0.75" stroke="#333" stroke-width="0.5"/>
<polygon points="493.4,689.6 486.2,679.7 496.0,672.5 503.3,682.4" fill="#81c784" opacity="0.75" stroke="#333" stroke-width="0.5"/>
<polygon points="1024.9,639.4 1028.2,635.9 1032.1,639.7 1028.8,643.1" fill="#81c784" opacity="0.75" stroke="#333" stroke-width="0.5"/>
<polygon points="615.9,1027.1 612.1,1024.2 615.3,1019.8 619.1,1022.7" fill="#81c784" opacity="0.75" stroke="#333" stroke-width="0.5"/>
<polygon points="882.5,815.0 870.9,810.9 875.0,799.4 886.6,803.5" fill="#81c784" opacity="0.75" stroke="#333" stroke-width="0.5"/>
<polygon points="566.8,791.6 567.6,786.9 573.0,787.8 572.1,792.6" fill="#81c784" opacity="0.75" stroke="#333" stroke-width="0.5"/>
<polygon points="876.0,590.8 871.3,590.6 871.5,585.2 876.2,585.4" fill="#81c784" opacity="0.75" stroke="#333" stroke-width="0.5"/>
<polygon points="788.6,981.8 787.2,970.5 798.8,969.0 800.3,980.3" fill="#81c784" opacity="0.75" stroke="#333" stroke-width="0.5"/>
<polygon points="499.4,586.7 511.1,583.1 514.8,594.8 503.0,598.4" fill="#81c784" opacity="0.75" stroke="#333" stroke-width="0.5"/>
<polygon points="1096.8,730.0 1094.8,725.6 1099.8,723.4 1101.8,727.7" fill="#81c784" opacity="0.75" stroke="#333" stroke-width="0.5"/>
<polygon points="673.9,815.5 677.8,812.8 680.9,817.3 676.9,820.0" fill="#81c784" opacity="0.75" stroke="#333" stroke-width="0.5"/>
<polygon points="867.3,867.7 874.9,858.1 884.5,865.7 876.9,875.3" fill="#81c784" opacity="0.75" stroke="#333" stroke-width="0.5"/>
<polygon points="526.3,735.9 522.2,733.5 525.0,728.8 529.1,731.3" fill="#81c784" opacity="0.75" stroke="#333" stroke-width="0.5"/>
<polygon points="959.3,613.9 961.1,609.5 966.1,611.5 964.4,615.9" fill="#81c784" opacity="0.75" stroke="#333" stroke-width="0.5"/>
<polygon points="700.1,1016.4 689.0,1013.7 691.8,1002.2 702.9,1005.0" fill="#81c784" opacity="0.75" stroke="#333" stroke-width="0.5"/>
<polygon points="557.2,506.5 558.1,494.3 570.3,495.1 569.4,507.4" fill="#81c784" opacity="0.75" stroke="#333" stroke-width="0.5"/>
<polygon points="848.6,771.6 853.4,771.1 853.9,776.5 849.2,777.0" fill="#81c784" opacity="0.75" stroke="#333" stroke-width="0.5"/>
<polygon points="619.1,810.7 618.0,806.0 623.3,804.8 624.4,809.4" fill="#81c784" opacity="0.75" stroke="#333" stroke-width="0.5"/>
<polygon points="712.5,1210.3 787.5,1210.3 787.5,1285.7 712.5,1285.7" fill="#1565c0" opacity="0.75" stroke="#333" stroke-width="0.5"/>
<text x="750" y="1248" font-size="7" fill="#111" text-anchor="middle">structure-platform-dock</text>
<polygon points="712.5,1285.3 787.5,1285.3 787.5,1360.7 712.5,1360.7" fill="#1565c0" opacity="0.75" stroke="#333" stroke-width="0.5"/>
<text x="750" y="1323" font-size="7" fill="#111" text-anchor="middle">structure-platform-dock</text>
<polygon points="763.5,1230.0 787.5,1230.0 787.5,1254.0 763.5,1254.0" fill="#e07b00" opacity="0.75" stroke="#333" stroke-width="0.5"/>
<text x="775.5" y="1242" font-size="7" fill="#111" text-anchor="middle">barrel</text>
<polygon points="711.0,1312.9 728.8,1305.4 738.0,1327.1 720.2,1334.6" fill="#e07b00" opacity="0.75" stroke="#333" stroke-width="0.5"/>
<text x="724.5" y="1320" font-size="7" fill="#111" text-anchor="middle">crate</text>
<polygon points="852.5,1352.1 942.1,1239.3 1148.9,1403.4 1059.3,1516.2" fill="#1565c0" opacity="0.75" stroke="#333" stroke-width="0.5"/>
<text x="996" y="1374" font-size="7" fill="#111" text-anchor="middle">ship-small</text>
<polygon points="670.6,1111.6 679.4,1111.6 679.4,1120.4 670.6,1120.4" fill="#e07b00" opacity="0.75" stroke="#333" stroke-width="0.5"/>
<text x="675" y="1116" font-size="7" fill="#111" text-anchor="middle">campfire_logs</text>
<polygon points="558.5,1193.7 603.6,1105.1 702.5,1155.4 657.4,1244.0" fill="#2e7d32" opacity="0.75" stroke="#333" stroke-width="0.5"/>
<polygon points="949.8,1174.6 860.7,1218.5 811.6,1119.0 900.7,1075.1" fill="#2e7d32" opacity="0.75" stroke="#333" stroke-width="0.5"/>
<polygon points="-67.5,584.8 42.6,492.0 247.5,735.2 137.4,828.0" fill="#1565c0" opacity="0.75" stroke="#333" stroke-width="0.5"/>
<text x="90" y="660" font-size="7" fill="#111" text-anchor="middle">ship-wreck</text>
<polygon points="359.0,640.3 392.4,640.3 392.4,677.5 359.0,677.5" fill="#81c784" opacity="0.75" stroke="#333" stroke-width="0.5"/>
<polygon points="1103.0,565.3 1136.4,565.3 1136.4,602.5 1103.0,602.5" fill="#81c784" opacity="0.75" stroke="#333" stroke-width="0.5"/>
<polygon points="528.0,678.0 552.0,678.0 552.0,702.0 528.0,702.0" fill="#e07b00" opacity="0.75" stroke="#333" stroke-width="0.5"/>
<text x="540" y="690" font-size="7" fill="#111" text-anchor="middle">barrel</text>
<polygon points="446.7,777.3 458.8,762.1 477.3,776.7 465.2,791.9" fill="#e07b00" opacity="0.75" stroke="#333" stroke-width="0.5"/>
<text x="462" y="777" font-size="7" fill="#111" text-anchor="middle">crate-bottles</text>
<polygon points="336.7,811.6 346.4,786.7 381.3,800.3 371.6,825.2" fill="#e07b00" opacity="0.75" stroke="#333" stroke-width="0.5"/>
<text x="354" y="804" font-size="7" fill="#111" text-anchor="middle">chest</text>
<polygon points="1325.9,575.8 1381.8,518.3 1435.1,570.0 1379.2,627.5" fill="#e07b00" opacity="0.75" stroke="#333" stroke-width="0.5"/>
<text x="1380" y="570" font-size="7" fill="#111" text-anchor="middle">rock-large</text>
<polygon points="113.4,1036.9 83.6,985.9 156.6,943.1 186.4,994.1" fill="#e07b00" opacity="0.75" stroke="#333" stroke-width="0.5"/>
<text x="135" y="990" font-size="7" fill="#111" text-anchor="middle">rock-wide</text>
<polygon points="156.3,354.7 201.2,354.7 201.2,414.4 156.3,414.4" fill="#e07b00" opacity="0.75" stroke="#333" stroke-width="0.5"/>
<text x="180" y="390" font-size="7" fill="#111" text-anchor="middle">rock-small</text>
<polygon points="1132.1,1423.3 1144.4,1379.1 1207.9,1396.7 1195.6,1440.9" fill="#e07b00" opacity="0.75" stroke="#333" stroke-width="0.5"/>
<text x="1170" y="1410" font-size="7" fill="#111" text-anchor="middle">rock-wide</text>
<polygon points="592.5,173.0 531.2,151.2 551.4,94.3 612.8,116.1" fill="#e07b00" opacity="0.75" stroke="#333" stroke-width="0.5"/>
<text x="570" y="135" font-size="7" fill="#111" text-anchor="middle">rock-large</text>
<polygon points="846.7,830.8 813.2,810.7 833.3,777.2 866.8,797.3" fill="#e07b00" opacity="0.75" stroke="#333" stroke-width="0.5"/>
<text x="840" y="804" font-size="7" fill="#111" text-anchor="middle">stall-green</text>
<polygon points="811.3,823.3 820.7,823.3 820.7,832.7 811.3,832.7" fill="#e07b00" opacity="0.75" stroke="#333" stroke-width="0.5"/>
<text x="816" y="828" font-size="7" fill="#111" text-anchor="middle">stall-stool</text>
<polygon points="881.8,548.6 888.2,548.6 888.2,555.4 881.8,555.4" fill="#e07b00" opacity="0.75" stroke="#333" stroke-width="0.5"/>
<text x="885" y="552" font-size="7" fill="#111" text-anchor="middle">lantern</text>
<polygon points="611.8,548.6 618.2,548.6 618.2,555.4 611.8,555.4" fill="#e07b00" opacity="0.75" stroke="#333" stroke-width="0.5"/>
<text x="615" y="552" font-size="7" fill="#111" text-anchor="middle">lantern</text>
<polygon points="548.8,767.6 555.2,767.6 555.2,774.4 548.8,774.4" fill="#e07b00" opacity="0.75" stroke="#333" stroke-width="0.5"/>
<text x="552" y="771" font-size="7" fill="#111" text-anchor="middle">lantern</text>
<polygon points="1040.8,776.6 1047.2,776.6 1047.2,783.4 1040.8,783.4" fill="#e07b00" opacity="0.75" stroke="#333" stroke-width="0.5"/>
<text x="1044" y="780" font-size="7" fill="#111" text-anchor="middle">lantern</text>
<polygon points="690.0,488.2 720.0,488.2 720.0,491.1 690.0,491.1" fill="#e07b00" opacity="0.75" stroke="#333" stroke-width="0.5"/>
<text x="705" y="504" font-size="7" fill="#111" text-anchor="middle">fence_planks</text>
<polygon points="750.0,488.2 780.0,488.2 780.0,491.1 750.0,491.1" fill="#e07b00" opacity="0.75" stroke="#333" stroke-width="0.5"/>
<text x="765" y="504" font-size="7" fill="#111" text-anchor="middle">fence_planks</text>
<polygon points="701.9,516.3 706.6,516.3 706.6,521.7 701.9,521.7" fill="#81c784" opacity="0.75" stroke="#333" stroke-width="0.5"/>
<polygon points="731.9,513.3 736.6,513.3 736.6,518.7 731.9,518.7" fill="#81c784" opacity="0.75" stroke="#333" stroke-width="0.5"/>
<polygon points="764.9,516.3 769.6,516.3 769.6,521.7 764.9,521.7" fill="#81c784" opacity="0.75" stroke="#333" stroke-width="0.5"/>
<polygon points="791.9,513.3 796.6,513.3 796.6,518.7 791.9,518.7" fill="#81c784" opacity="0.75" stroke="#333" stroke-width="0.5"/>
<polygon points="410.5,526.8 508.2,485.5 549.5,583.2 451.8,624.5" fill="#2e7d32" opacity="0.75" stroke="#333" stroke-width="0.5"/>
<polygon points="1050.0,604.7 970.3,585.0 990.0,505.3 1069.7,525.0" fill="#2e7d32" opacity="0.75" stroke="#333" stroke-width="0.5"/>
<polygon points="564.0,893.6 576.3,893.6 576.3,905.9 564.0,905.9" fill="#81c784" opacity="0.75" stroke="#333" stroke-width="0.5"/>
<polygon points="939.0,907.8 950.5,907.8 950.5,919.6 939.0,919.6" fill="#81c784" opacity="0.75" stroke="#333" stroke-width="0.5"/>
<polygon points="459.0,832.8 470.5,832.8 470.5,844.6 459.0,844.6" fill="#81c784" opacity="0.75" stroke="#333" stroke-width="0.5"/>
<polygon points="1044.0,623.6 1056.3,623.6 1056.3,635.9 1044.0,635.9" fill="#81c784" opacity="0.75" stroke="#333" stroke-width="0.5"/>
<polygon points="842.9,546.3 847.6,546.3 847.6,551.7 842.9,551.7" fill="#81c784" opacity="0.75" stroke="#333" stroke-width="0.5"/>
<polygon points="650.9,546.3 655.6,546.3 655.6,551.7 650.9,551.7" fill="#81c784" opacity="0.75" stroke="#333" stroke-width="0.5"/>
<polygon points="560.9,672.3 565.6,672.3 565.6,677.7 560.9,677.7" fill="#81c784" opacity="0.75" stroke="#333" stroke-width="0.5"/>
<polygon points="941.1,671.4 947.4,671.4 947.4,678.6 941.1,678.6" fill="#81c784" opacity="0.75" stroke="#333" stroke-width="0.5"/>
<polygon points="447.4,762.1 452.6,762.1 452.6,768.2 447.4,768.2" fill="#81c784" opacity="0.75" stroke="#333" stroke-width="0.5"/>
<polygon points="1020.5,673.7 1037.5,673.7 1037.5,688.3 1020.5,688.3" fill="#e07b00" opacity="0.75" stroke="#333" stroke-width="0.5"/>
<text x="1029" y="681" font-size="7" fill="#111" text-anchor="middle">pot_large</text>
<polygon points="931.1,538.8 940.9,538.8 940.9,547.2 931.1,547.2" fill="#e07b00" opacity="0.75" stroke="#333" stroke-width="0.5"/>
<text x="936" y="543" font-size="7" fill="#111" text-anchor="middle">pot_small</text>
<polygon points="702.9,833.2 705.4,826.7 725.3,834.4 722.7,840.9" fill="#e07b00" opacity="0.75" stroke="#333" stroke-width="0.5"/>
<text x="714" y="834" font-size="7" fill="#111" text-anchor="middle">log</text>
<circle cx="810" cy="705" r="5" fill="#e91e63" stroke="#fff" stroke-width="1.5"/>
<text x="810" y="697" font-size="10" fill="#fff" text-anchor="middle">npc_guide</text>
<circle cx="690" cy="690" r="5" fill="#e91e63" stroke="#fff" stroke-width="1.5"/>
<text x="690" y="682" font-size="10" fill="#fff" text-anchor="middle">cat_npc</text>
<circle cx="885" cy="585" r="5" fill="#e91e63" stroke="#fff" stroke-width="1.5"/>
<text x="885" y="577" font-size="10" fill="#fff" text-anchor="middle">dog_about</text>
<circle cx="786" cy="1200" r="5" fill="#e91e63" stroke="#fff" stroke-width="1.5"/>
<text x="786" y="1192" font-size="10" fill="#fff" text-anchor="middle">crab_beach</text>
<circle cx="825" cy="660" r="5" fill="#e91e63" stroke="#fff" stroke-width="1.5"/>
<text x="825" y="652" font-size="10" fill="#fff" text-anchor="middle">villager_kid</text>
<circle cx="846" cy="780" r="5" fill="#e91e63" stroke="#fff" stroke-width="1.5"/>
<text x="846" y="772" font-size="10" fill="#fff" text-anchor="middle">villager_market</text>
<circle cx="570" cy="825" r="5" fill="#e91e63" stroke="#fff" stroke-width="1.5"/>
<text x="570" y="817" font-size="10" fill="#fff" text-anchor="middle">villager_west</text>
<circle cx="765" cy="585" r="5" fill="#e91e63" stroke="#fff" stroke-width="1.5"/>
<text x="765" y="577" font-size="10" fill="#fff" text-anchor="middle">villager_north</text>
<circle cx="750" cy="750" r="6" fill="#00e676" stroke="#000" stroke-width="2"/>
<text x="750" y="740" font-size="12" fill="#00e676" text-anchor="middle" font-weight="bold">SPAWN</text>
<g font-size="13" fill="#fff">
<rect x="10" y="10" width="220" height="120" fill="rgba(0,0,0,0.55)" rx="4"/>
<text x="20" y="30">■ nâu nhạt = nhà (structure)</text>
<text x="20" y="48">■ cam = prop · ■ xanh = cây</text>
<text x="20" y="66">▭ đỏ = collider · ▭ vàng = zone E</text>
<text x="20" y="84">● hồng = NPC · ● xanh lá = spawn</text>
<text x="20" y="102">Bắc = phía trên (−Z)</text>
</g>
</svg>